<svg width="15" height="13" fill="none" xmlns="http://www.w3.org/2000/svg"><path d="M10.937 7.04a.741.741 0 00-.239-.148.786.786 0 00-.803.148L8.722 8.13c-.544-.15-1.56-.492-2.204-1.09-.644-.597-1.012-1.54-1.174-2.046l1.174-1.09a.682.682 0 00.16-.222.641.641 0 00-.16-.745L3.571.2a.742.742 0 00-.24-.149.785.785 0 00-.802.149L.531 2.056c-.28.26-.437.616-.431.981.017.974.294 4.357 3.166 7.023C6.137 12.726 9.78 12.984 10.83 13h.02c.39 0 .757-.142 1.036-.4l1.998-1.856a.683.683 0 00.16-.222.642.642 0 00-.16-.745L10.937 7.04zm-.093 4.591c-.92-.014-4.065-.243-6.537-2.539-2.48-2.302-2.72-5.233-2.734-6.07l1.477-1.37L4.955 3.42l-.953.884a.676.676 0 00-.185.289.637.637 0 00-.015.335c.018.079.45 1.944 1.673 3.08C6.698 9.143 8.707 9.545 8.791 9.56c.12.024.244.02.362-.013a.743.743 0 00.31-.172l.953-.885 1.905 1.769-1.477 1.371z" fill="#4A4A4A"/></svg>