<svg width="81" height="80" fill="none" xmlns="http://www.w3.org/2000/svg"><path d="M73.813 11.25h-67.5a2.5 2.5 0 00-2.5 2.5v40h72.5v-40a2.5 2.5 0 00-2.5-2.5zM72.563 50h-65V15h65v35zm-68.75 3.75v5a2.5 2.5 0 002.5 2.5h67.5a2.5 2.5 0 002.5-2.5v-5h-72.5zm28.75 7.5h15v7.5h-15v-7.5zm-6.25 7.5a2.5 2.5 0 00-2.5 2.5v5h32.5v-5a2.5 2.5 0 00-2.5-2.5h-27.5z" fill="#9BC9FF"/><path d="M20.062 35a2.5 2.5 0 10-.008-4.998A2.5 2.5 0 0020.062 35zm12.5 5a2.49 2.49 0 001.864-4.151 2.484 2.484 0 00-4.182.724A2.49 2.49 0 0032.562 40zm11.251-10a2.525 2.525 0 10-1.864-.849 2.482 2.482 0 001.864.85zm15 7.5a2.5 2.5 0 100-5 2.5 2.5 0 000 5zm6.25-12.5a2.5 2.5 0 100-5 2.5 2.5 0 000 5z" fill="#9BC9FF"/><path d="M73.813 10h-67.5a3.75 3.75 0 00-3.75 3.75v45a3.75 3.75 0 003.75 3.75h25v5h-5a3.75 3.75 0 00-3.75 3.75v5a1.25 1.25 0 001.25 1.25h32.5a1.25 1.25 0 001.25-1.25v-5a3.75 3.75 0 00-3.75-3.75h-5v-5h25a3.75 3.75 0 003.75-3.75v-45a3.75 3.75 0 00-3.75-3.75zm-67.5 2.5h67.5a1.25 1.25 0 011.25 1.25V52.5h-70V13.75a1.25 1.25 0 011.25-1.25zm47.5 57.5a1.25 1.25 0 011.25 1.25V75h-30v-3.75a1.25 1.25 0 011.25-1.25h27.5zm-7.5-2.5h-12.5v-5h12.5v5zm27.5-7.5h-67.5a1.25 1.25 0 01-1.25-1.25V55h70v3.75a1.25 1.25 0 01-1.25 1.25z" fill="#1E81CE"/><path d="M7.563 51.25h65a1.25 1.25 0 001.25-1.25V15a1.25 1.25 0 00-1.25-1.25h-65A1.25 1.25 0 006.313 15v35a1.25 1.25 0 001.25 1.25zm1.25-35h62.5v32.5h-62.5v-32.5zm60 40h-2.5a1.25 1.25 0 000 2.5h2.5a1.25 1.25 0 000-2.5z" fill="#1E81CE"/><path d="M65.063 18.75a3.743 3.743 0 00-2.693 6.35l-3.107 6.195a3.814 3.814 0 00-.45-.045 3.736 3.736 0 00-2.6 1.057l-8.695-4.357c.024-.149.039-.3.045-.45a3.75 3.75 0 10-7.5 0c0 .483.096.961.28 1.407l-5.979 5.324a3.667 3.667 0 00-4.602.801l-5.964-2.384c0-.05.015-.097.015-.148a3.791 3.791 0 10-.949 2.468l5.964 2.384c0 .05-.015.097-.015.148a3.75 3.75 0 007.5 0 3.71 3.71 0 00-.28-1.407l5.979-5.324a3.68 3.68 0 004.4-.576l8.696 4.357c-.024.149-.039.3-.045.45a3.75 3.75 0 106.442-2.6l3.108-6.195c.149.024.3.039.45.045a3.75 3.75 0 000-7.5zm-45 15a1.25 1.25 0 110-2.499 1.25 1.25 0 010 2.499zm12.5 5a1.25 1.25 0 110-2.499 1.25 1.25 0 010 2.499zm11.25-10a1.25 1.25 0 110-2.499 1.25 1.25 0 010 2.499zm15 7.5a1.25 1.25 0 110-2.499 1.25 1.25 0 010 2.499zm6.25-12.5a1.25 1.25 0 110-2.499 1.25 1.25 0 010 2.499z" fill="#1E81CE"/><path d="M67.563 43.75h-53.75V20a1.25 1.25 0 00-2.5 0v25a1.25 1.25 0 001.25 1.25h55a1.25 1.25 0 000-2.5z" fill="#1E81CE"/></svg>