<svg width="81" height="80" fill="none" xmlns="http://www.w3.org/2000/svg"><path d="M76.12 22.79L58.71 14.8l-2.411 17.99 4.375-1.806a22.485 22.485 0 01-30.732 29.09L24.296 71.25a34.989 34.989 0 0047.239-46.535l4.585-1.925zM22.562 9.688A34.989 34.989 0 008.588 55.285L4.003 57.21l17.41 7.99 2.411-17.99-4.375 1.806a22.483 22.483 0 0130.738-29.09l5.646-11.17a34.963 34.963 0 00-33.271.932z" fill="#9BC9FF"/><path d="M40.062 25a15 15 0 1015 15 15.017 15.017 0 00-15-15zm0 27.5a12.5 12.5 0 1112.5-12.5 12.514 12.514 0 01-12.5 12.5z" fill="#1E81CE"/><path d="M40.063 36.25c1.526 0 2.5.74 2.5 1.25a1.25 1.25 0 002.5 0c0-1.776-1.574-3.214-3.75-3.625V32.5a1.25 1.25 0 00-2.5 0v1.375c-2.177.409-3.75 1.846-3.75 3.625 0 2.102 2.196 3.75 5 3.75 1.526 0 2.5.74 2.5 1.25s-.974 1.25-2.5 1.25c-1.527 0-2.5-.74-2.5-1.25a1.25 1.25 0 00-2.5 0c0 1.776 1.573 3.214 3.75 3.625V47.5a1.25 1.25 0 002.5 0v-1.375c2.176-.409 3.75-1.846 3.75-3.625 0-2.102-2.197-3.75-5-3.75-1.527 0-2.5-.74-2.5-1.25s.973-1.25 2.5-1.25z" fill="#1E81CE"/><path d="M76.642 21.654l-17.41-7.99a1.25 1.25 0 00-1.76.97l-2.41 17.99a1.25 1.25 0 001.715 1.322l3.215-1.321a21.237 21.237 0 01-29.486 26.334 1.25 1.25 0 00-1.678.55l-5.641 11.17a1.25 1.25 0 00.552 1.68 36.241 36.241 0 0049.484-47l3.388-1.422a1.25 1.25 0 00.037-2.288l-.006.005zM56.937 69.227a33.67 33.67 0 01-30.95 1.443l4.523-8.946a23.733 23.733 0 0031.313-31.242 1.25 1.25 0 00-1.625-.653l-2.375.978 1.901-14.167 13.288 6.099-1.96.823a1.248 1.248 0 00-.639 1.7 33.827 33.827 0 01-13.476 43.965z" fill="#1E81CE"/><path d="M42.413 69.911c-.766.06-1.544.09-2.306.09a1.25 1.25 0 100 2.5c.827 0 1.668-.032 2.5-.098a1.25 1.25 0 10-.195-2.492zm27.631-29.834a29.988 29.988 0 01-22.75 29.04 1.25 1.25 0 10.604 2.426A32.484 32.484 0 0072.544 40.09a1.252 1.252 0 00-1.243-1.257h-.007a1.25 1.25 0 00-1.25 1.244zM37.597 10.094h.1a27.596 27.596 0 012.32-.094 1.25 1.25 0 000-2.5c-.837 0-1.685.032-2.517.099a1.251 1.251 0 00.097 2.5v-.005zm-12.536 3.924a30.077 30.077 0 017.715-3.125 1.25 1.25 0 00-.607-2.425A32.484 32.484 0 007.579 39.91a1.25 1.25 0 102.5 0A30.164 30.164 0 0125.06 14.018z" fill="#1E81CE"/><path d="M24.587 46.22a1.25 1.25 0 00-1.239-.165l-3.216 1.326a21.236 21.236 0 0129.486-26.34 1.25 1.25 0 001.678-.551l5.647-11.17a1.252 1.252 0 00-.554-1.681 36.24 36.24 0 00-49.482 47l-3.388 1.422a1.25 1.25 0 00-.037 2.29l17.41 7.99a1.25 1.25 0 001.76-.97l2.41-17.997a1.25 1.25 0 00-.475-1.155zm-4.188 17.14l-13.287-6.1 1.96-.824a1.25 1.25 0 00.639-1.7A33.74 33.74 0 0154.137 9.33l-4.523 8.946a23.734 23.734 0 00-31.313 31.241 1.25 1.25 0 001.625.654l2.375-.979-1.902 14.168z" fill="#1E81CE"/></svg>