<svg width="81" height="80" fill="none" xmlns="http://www.w3.org/2000/svg"><path d="M56.297 55c-3.242 8.965-9.296 15-16.234 15a30 30 0 0030-30h-11.25a44.375 44.375 0 01-2.516 15z" fill="#9BC9FF"/><path d="M23.828 55a44.375 44.375 0 01-2.515-15h-11.25a30 30 0 0030 30c-6.94 0-12.993-6.035-16.236-15zm16.235-45C47 10 53.055 16.035 56.297 25a44.375 44.375 0 012.516 15h11.25a30 30 0 00-30-30z" fill="#9BC9FF"/><path d="M23.828 25c3.242-8.965 9.296-15 16.235-15a30 30 0 00-30 30h11.25a44.375 44.375 0 012.515-15z" fill="#9BC9FF"/><path d="M23.828 25h16.235V10c-6.939 0-12.993 6.035-16.235 15zm32.469 30H40.063v15C47 70 53.055 63.965 56.297 55zM40.063 28.75V25H23.828a44.373 44.373 0 00-2.515 15h7.5a11.25 11.25 0 0111.25-11.25zM23.828 55c3.242 8.965 9.296 15 16.235 15V55H23.828zm4.985-15h-7.5a44.373 44.373 0 002.515 15h16.235v-3.75A11.25 11.25 0 0128.813 40zm11.25-11.25A11.25 11.25 0 0151.313 40h7.5a44.375 44.375 0 00-2.516-15H40.063v3.75zm0 22.5V55h16.234a44.375 44.375 0 002.516-15h-7.5a11.25 11.25 0 01-11.25 11.25z" fill="#9BC9FF"/><path d="M56.297 25c-3.242-8.965-9.296-15-16.234-15v15h16.234z" fill="#9BC9FF"/><path d="M40.063 36.25c1.526 0 2.5.74 2.5 1.25a1.25 1.25 0 002.5 0c0-1.776-1.574-3.214-3.75-3.625V32.5a1.25 1.25 0 00-2.5 0v1.375c-2.177.409-3.75 1.846-3.75 3.625 0 2.102 2.196 3.75 5 3.75 1.526 0 2.5.74 2.5 1.25s-.974 1.25-2.5 1.25c-1.527 0-2.5-.74-2.5-1.25a1.25 1.25 0 00-2.5 0c0 1.776 1.573 3.214 3.75 3.625V47.5a1.25 1.25 0 002.5 0v-1.375c2.176-.409 3.75-1.846 3.75-3.625 0-2.102-2.197-3.75-5-3.75-1.527 0-2.5-.74-2.5-1.25s.973-1.25 2.5-1.25zm-3.9-31.042c.045 0 .09-.003.135-.008a33.27 33.27 0 012.433-.174 1.25 1.25 0 001.206-1.295 1.265 1.265 0 00-1.293-1.205c-.863.032-1.74.095-2.61.188a1.252 1.252 0 10.131 2.5l-.002-.006zM21.854 9.899c.22 0 .435-.06.625-.17.7-.408 1.424-.796 2.148-1.153a1.25 1.25 0 10-1.103-2.243 36.98 36.98 0 00-2.304 1.236 1.25 1.25 0 00.625 2.33h.009zm6.906-3.101c.133 0 .265-.022.39-.063.766-.25 1.554-.48 2.346-.679a1.25 1.25 0 00-.612-2.425c-.847.214-1.692.46-2.513.728a1.25 1.25 0 00.39 2.439zm-13.019 7.577c.31 0 .61-.115.839-.324a34.798 34.798 0 011.865-1.573A1.255 1.255 0 1016.9 10.5a37.694 37.694 0 00-2 1.688 1.25 1.25 0 00.84 2.176l.001.011zM4.325 33.765a1.25 1.25 0 001.48-.974c.165-.788.36-1.586.583-2.375a1.25 1.25 0 00-2.406-.666 38.37 38.37 0 00-.625 2.54 1.25 1.25 0 00.968 1.475zm2.072-7.294a1.236 1.236 0 001.19-.096 1.25 1.25 0 00.46-.545 35.56 35.56 0 011.068-2.197 1.25 1.25 0 00-2.21-1.17 37.773 37.773 0 00-1.144 2.355 1.25 1.25 0 00.636 1.653zm4.291-6.461a1.25 1.25 0 001.014-.516 35.14 35.14 0 011.5-1.929 1.252 1.252 0 00-1.923-1.602 38.051 38.051 0 00-1.607 2.065 1.25 1.25 0 00.28 1.75c.214.154.472.235.736.232zm54.469-4.408a1.25 1.25 0 101.792-1.743 35.442 35.442 0 00-1.887-1.811 1.25 1.25 0 00-1.668 1.862 35.75 35.75 0 011.763 1.692zM43.615 5.178c.802.08 1.615.19 2.418.328a1.25 1.25 0 10.422-2.463 37.463 37.463 0 00-2.59-.353 1.25 1.25 0 00-.25 2.488zm30.659 27.405c.17.787.315 1.596.431 2.403a1.25 1.25 0 001.88.898 1.25 1.25 0 00.602-1.259 37.64 37.64 0 00-.463-2.574 1.25 1.25 0 00-2.444.527l-.006.005zM69.68 21.345a1.25 1.25 0 102.117-1.332 38.087 38.087 0 00-1.472-2.163 1.25 1.25 0 10-2.013 1.479c.478.656.94 1.334 1.368 2.016zm2.312 4.297c.33.733.64 1.493.923 2.257a1.25 1.25 0 102.344-.867 39.58 39.58 0 00-.987-2.417 1.25 1.25 0 00-2.28 1.027zM5.063 40c0-.797.026-1.586.078-2.367a1.25 1.25 0 00-1.163-1.33 1.233 1.233 0 00-1.33 1.162c-.057.837-.086 1.69-.086 2.5v.106a1.218 1.218 0 001.25 1.212A1.283 1.283 0 005.063 40zM50.772 6.668c.775.25 1.55.527 2.3.828a1.25 1.25 0 10.93-2.32 35.265 35.265 0 00-2.466-.888 1.25 1.25 0 00-.764 2.375v.005zm6.692 2.957c.703.403 1.4.838 2.074 1.289a1.251 1.251 0 101.4-2.075 34.87 34.87 0 00-2.223-1.375 1.252 1.252 0 00-1.25 2.169v-.008zm-6.558 63.663c-.775.25-1.565.479-2.345.672a1.25 1.25 0 10.603 2.427c.837-.208 1.685-.45 2.516-.722a1.25 1.25 0 10-.774-2.375v-.002zm17.48-12.722a38.91 38.91 0 01-1.5 1.927 1.247 1.247 0 00.142 1.777 1.25 1.25 0 001.775-.172 38.303 38.303 0 001.61-2.062 1.25 1.25 0 10-2.022-1.47h-.005zM73.7 53.6a1.25 1.25 0 00-1.65.633 36.15 36.15 0 01-1.074 2.196 1.25 1.25 0 002.208 1.174 37.26 37.26 0 001.148-2.354 1.25 1.25 0 00-.632-1.65zm2.086-7.29a1.25 1.25 0 00-1.48.965 35.61 35.61 0 01-.588 2.375 1.25 1.25 0 002.405.688c.24-.842.45-1.697.625-2.542a1.249 1.249 0 00-.962-1.486zM63.491 66a33.693 33.693 0 01-1.875 1.573 1.25 1.25 0 101.54 1.967 37.301 37.301 0 002-1.681A1.25 1.25 0 0063.491 66zm-19.736 8.808c-.808.085-1.626.14-2.434.168a1.25 1.25 0 00.041 2.5h.044c.866-.028 1.744-.09 2.61-.18a1.25 1.25 0 00-.261-2.487v-.001zM76.312 38.6a1.25 1.25 0 00-1.25 1.25V40c0 .812-.028 1.634-.084 2.44a1.248 1.248 0 001.162 1.334h.087a1.25 1.25 0 001.25-1.164c.055-.86.085-1.735.085-2.61v-.15a1.25 1.25 0 00-1.25-1.25zm-18.73 31.708c-.703.406-1.426.792-2.153 1.148a1.25 1.25 0 00.55 2.375c.19.001.378-.041.549-.125a34.86 34.86 0 002.306-1.228 1.25 1.25 0 00-1.25-2.164l-.002-.006zm-28.298 3.001a34.692 34.692 0 01-2.298-.832 1.25 1.25 0 10-.934 2.318c.806.325 1.635.625 2.463.894a1.25 1.25 0 10.769-2.38zm7.153 1.506c-.8-.082-1.613-.195-2.418-.333a1.25 1.25 0 10-.427 2.463 37.84 37.84 0 002.59.357c.042.004.084.007.125.007a1.251 1.251 0 10.125-2.5l.005.006zM14.918 64.347a1.25 1.25 0 00-1.796 1.738 38.504 38.504 0 001.884 1.815 1.25 1.25 0 001.67-1.858 36.31 36.31 0 01-1.758-1.695zM8.103 54.293c-.332-.74-.641-1.5-.918-2.26a1.25 1.25 0 00-2.348.86c.299.813.625 1.626.984 2.42a1.25 1.25 0 102.282-1.02zm2.301 4.3a1.25 1.25 0 00-2.116 1.33c.461.734.955 1.463 1.466 2.163a1.25 1.25 0 102.02-1.472 35.626 35.626 0 01-1.37-2.021zm-4.57-11.248a35.056 35.056 0 01-.426-2.402 1.25 1.25 0 10-2.475.35c.125.866.276 1.732.456 2.575a1.25 1.25 0 002.445-.523zm16.763 22.994c-.7-.405-1.398-.84-2.073-1.295a1.25 1.25 0 10-1.397 2.074 38.13 38.13 0 002.22 1.386 1.252 1.252 0 001.872-.917 1.252 1.252 0 00-.622-1.248z" fill="#1E81CE"/><path d="M71.312 40a31.25 31.25 0 10-31.25 31.25A31.285 31.285 0 0071.312 40zm-59.968 1.25h8.738a45.66 45.66 0 002.025 12.5h-7.286a28.556 28.556 0 01-3.477-12.5zm3.477-15h7.286a45.635 45.635 0 00-2.025 12.5h-8.738a28.556 28.556 0 013.477-12.5zm53.96 12.5h-8.739a45.639 45.639 0 00-2.025-12.5h7.288a28.57 28.57 0 013.476 12.5zm-11.237 0h-5.045a12.519 12.519 0 00-11.187-11.186V26.25h14.115a43.39 43.39 0 012.117 12.5zM40.062 50a10 10 0 1110-10 10.011 10.011 0 01-10 10zm1.25-26.25V11.332c5.464.637 10.242 5.407 13.177 12.418H41.312zm-2.5-12.418V23.75H25.636c2.935-7.01 7.713-11.78 13.176-12.418zm0 14.918v1.314a12.519 12.519 0 00-11.186 11.187h-5.045a43.42 43.42 0 012.116-12.5h14.115zm-16.23 15h5.044a12.519 12.519 0 0011.186 11.187v1.314H24.697a43.394 43.394 0 01-2.116-12.5zm16.23 15v12.42c-5.463-.638-10.24-5.408-13.176-12.42h13.176zm2.5 12.42V56.25H54.49c-2.935 7.012-7.713 11.782-13.177 12.42zm0-14.92v-1.313A12.52 12.52 0 0052.5 41.25h5.045a43.39 43.39 0 01-2.117 12.5H41.312zm18.73-12.5h8.74a28.57 28.57 0 01-3.477 12.5h-7.288a45.639 45.639 0 002.025-12.5zm3.72-17.5h-6.625a28.75 28.75 0 00-6.89-10.624A28.898 28.898 0 0163.761 23.75zM29.88 13.126a28.75 28.75 0 00-6.893 10.624h-6.625A28.906 28.906 0 0129.88 13.126zM16.362 56.25h6.625a28.75 28.75 0 006.893 10.632A28.906 28.906 0 0116.362 56.25zm33.884 10.632A28.75 28.75 0 0057.14 56.25h6.625a28.898 28.898 0 01-13.518 10.632z" fill="#1E81CE"/></svg>