<svg width="81" height="80" fill="none" xmlns="http://www.w3.org/2000/svg"><path d="M26.925 44.223l-3.644.91a12.5 12.5 0 00-9.468 12.127V77.5h20l-6.888-33.277zm13.138 2.027l-2.79 2.233-2.21 29.017h10l-2.21-29.017-2.79-2.233zm0 6.25l-2.85-.95 2.85.95 2.85-.95-2.85.95zm16.781-7.367l-3.644-.91L46.312 77.5h20V57.26a12.5 12.5 0 00-9.468-12.127zM40.063 46.25l-6.25-3.75-5 1.25 5 7.5 6.25-5zm6.25 5l5-7.5-5-1.25-6.25 3.75 6.25 5zM57.563 5h-35a2.5 2.5 0 00-2.5 2.5v5h40v-5a2.5 2.5 0 00-2.5-2.5z" fill="#9BC9FF"/><path d="M57.15 43.925l-5.538-1.387-4.05-1.013V38.75h10a3.762 3.762 0 003.75-3.75V7.5a3.761 3.761 0 00-3.75-3.75h-35a3.761 3.761 0 00-3.75 3.75V35a3.762 3.762 0 003.75 3.75h10v2.775l-4.05 1.013-5.537 1.387a13.724 13.724 0 00-10.413 13.338V77.5a1.25 1.25 0 001.25 1.25h52.5a1.25 1.25 0 001.25-1.25V57.263A13.724 13.724 0 0057.15 43.925zm-7.863.613l-3.262 4.887L42.25 46.4l4.262-2.563 2.775.7zm-9.225.25l-5-3V38.75h10v3.038l-5 3zm1.525 5.887l-1.525.513-1.525-.513.138-1.712 1.387-1.113 1.388 1.112.137 1.713zM21.312 7.5a1.25 1.25 0 011.25-1.25h35a1.25 1.25 0 011.25 1.25v3.75h-37.5V7.5zm1.25 28.75a1.25 1.25 0 01-1.25-1.25V13.75h37.5V35a1.25 1.25 0 01-1.25 1.25h-35zm11.05 7.587l4.263 2.563-3.775 3.025-3.263-4.887 2.775-.7zm-8.55 32.413V62.5a1.25 1.25 0 00-2.5 0v13.75h-7.5V57.263a11.22 11.22 0 018.525-10.913l2.375-.6 6.313 30.5h-7.213zm9.113-3.175l-5.713-27.6 4.313 6.462a1.201 1.201 0 001.037.563c.283 0 .557-.096.775-.275l1.4-1.113-1.812 21.963zm2.25 3.175l1.9-23.013 1.337.45c.26.084.54.084.8 0l1.338-.45 1.9 23.013h-7.275zm7.712-25.138l1.4 1.113c.22.178.493.276.775.275a1.201 1.201 0 001.038-.563l4.312-6.462-5.712 27.6-1.813-21.963zM65.062 76.25h-7.5V62.5a1.25 1.25 0 00-2.5 0v13.75H47.85l6.312-30.5 2.375.6a11.22 11.22 0 018.525 10.913V76.25z" fill="#1E81CE"/><path d="M40.063 21.25c1.526 0 2.5.74 2.5 1.25a1.25 1.25 0 002.5 0c0-1.776-1.574-3.214-3.75-3.625V17.5a1.25 1.25 0 00-2.5 0v1.375c-2.177.409-3.75 1.846-3.75 3.625 0 2.102 2.196 3.75 5 3.75 1.526 0 2.5.74 2.5 1.25s-.974 1.25-2.5 1.25c-1.527 0-2.5-.74-2.5-1.25a1.25 1.25 0 00-2.5 0c0 1.776 1.573 3.214 3.75 3.625V32.5a1.25 1.25 0 002.5 0v-1.375c2.176-.409 3.75-1.846 3.75-3.625 0-2.102-2.197-3.75-5-3.75-1.527 0-2.5-.74-2.5-1.25s.973-1.25 2.5-1.25zm8.75 2.5h-1.25a1.25 1.25 0 000 2.5h1.25a1.25 1.25 0 000-2.5zm-16.25 0h-1.25a1.25 1.25 0 000 2.5h1.25a1.25 1.25 0 000-2.5zM23.813 7.5h2.5V10h-2.5V7.5zm5 0h2.5V10h-2.5V7.5zm5 0h2.5V10h-2.5V7.5z" fill="#1E81CE"/></svg>