<svg width="81" height="81" fill="none" xmlns="http://www.w3.org/2000/svg"><path d="M34.856 62.42h-.006.006c2.236-.853 3.581-1.94 3.581-3.124v-6.25c0 2.762-7.274 5-16.25 5-8.975 0-16.25-2.238-16.25-5v6.25c0 1.185 1.345 2.27 3.582 3.125a37.662 37.662 0 0012.668 1.875 37.662 37.662 0 0012.67-1.875zM22.188 76.796c8.975 0 16.25-2.238 16.25-5v-6.25c0 2.762-7.276 5-16.25 5-8.975 0-16.25-2.238-16.25-5v6.25c0 2.762 7.275 5 16.25 5zm37.5-31.25c-8.976 0-16.25-2.238-16.25-5v6.25c0 1.185 1.344 2.27 3.58 3.125a37.662 37.662 0 0012.67 1.875 37.662 37.662 0 0012.668-1.875c2.237-.854 3.582-1.94 3.582-3.125v-6.25c0 2.762-7.276 5-16.25 5zm0 25c-8.976 0-16.25-2.238-16.25-5v6.25c0 2.762 7.274 5 16.25 5 8.974 0 16.25-2.238 16.25-5v-6.25c0 2.762-7.276 5-16.25 5zm0-12.5c-8.976 0-16.25-2.238-16.25-5v6.25c0 1.185 1.344 2.27 3.58 3.125a37.662 37.662 0 0012.67 1.875 37.662 37.662 0 0012.668-1.875c2.237-.854 3.582-1.94 3.582-3.125v-6.25c0 2.762-7.276 5-16.25 5zm0-25c-8.976 0-16.25-2.238-16.25-5v6.25c0 1.185 1.344 2.27 3.58 3.125a37.662 37.662 0 0012.67 1.875 37.662 37.662 0 0012.668-1.875c2.237-.854 3.582-1.94 3.582-3.125v-6.25c0 2.762-7.276 5-16.25 5z" fill="#9BC9FF"/><path d="M59.688 29.296c6.903 0 12.5-5.597 12.5-12.5 0-6.904-5.597-12.5-12.5-12.5-6.904 0-12.5 5.596-12.5 12.5 0 6.903 5.596 12.5 12.5 12.5zm-37.5 25c6.903 0 12.5-5.597 12.5-12.5 0-6.904-5.597-12.5-12.5-12.5-6.904 0-12.5 5.596-12.5 12.5 0 6.903 5.596 12.5 12.5 12.5zm2.5-32.5a10 10 0 0010-10v-2.5h-2.5a10 10 0 00-10 10v2.5h2.5zm-12.5-17.5h-2.5v2.5a10 10 0 0010 10h2.5v-2.5a10 10 0 00-10-10z" fill="#9BC9FF"/><path d="M77.188 34.296v-6.25c0-1.928-1.876-3.524-5.437-4.662a13.75 13.75 0 10-24.125 0c-3.563 1.138-5.438 2.734-5.438 4.662v6.25a3.885 3.885 0 002.047 3.135 3.816 3.816 0 00-2.047 3.115v6.25a3.885 3.885 0 002.047 3.135 3.816 3.816 0 00-2.047 3.115v6.25a3.885 3.885 0 002.047 3.135 3.816 3.816 0 00-2.047 3.115v6.25c0 4.295 9.07 6.25 17.5 6.25 8.428 0 17.5-1.955 17.5-6.25v-6.25a3.817 3.817 0 00-2.048-3.115 3.886 3.886 0 002.047-3.135v-6.25a3.817 3.817 0 00-2.047-3.115 3.886 3.886 0 002.047-3.135v-6.25a3.817 3.817 0 00-2.047-3.115 3.886 3.886 0 002.047-3.135zm-17.5 3.75c-9.306 0-15-2.428-15-3.75v-2.823c3.276 1.919 9.28 2.823 15 2.823 5.718 0 11.723-.904 15-2.823v2.823c0 1.322-5.695 3.75-15 3.75zm0-32.5a11.25 11.25 0 11-11.25 11.25 11.262 11.262 0 0111.25-11.25zM49.102 25.56a13.73 13.73 0 0021.17 0c3.18.9 4.415 1.977 4.415 2.485 0 1.322-5.694 3.75-15 3.75-9.304 0-15-2.428-15-3.75 0-.508 1.236-1.585 4.416-2.485zm10.586 24.985c-9.306 0-15-2.428-15-3.75v-2.823c3.276 1.919 9.28 2.823 15 2.823 5.718 0 11.723-.904 15-2.823v2.823c0 1.322-5.695 3.75-15 3.75zm0 12.5c-9.306 0-15-2.428-15-3.75v-2.823c3.276 1.919 9.28 2.823 15 2.823 5.718 0 11.723-.904 15-2.823v2.823c0 1.322-5.695 3.75-15 3.75zm0 12.5c-9.306 0-15-2.428-15-3.75v-2.823c3.276 1.919 9.28 2.823 15 2.823 5.718 0 11.723-.904 15-2.823v2.823c0 1.322-5.695 3.75-15 3.75zm15-10c0 1.322-5.695 3.75-15 3.75-9.306 0-15-2.428-15-3.75 0-.333.642-1.055 2.337-1.773a40.627 40.627 0 0012.663 1.773 40.627 40.627 0 0012.662-1.773c1.695.718 2.338 1.44 2.338 1.773zm0-12.5c0 1.322-5.695 3.75-15 3.75-9.306 0-15-2.428-15-3.75 0-.333.642-1.055 2.337-1.773a40.627 40.627 0 0012.663 1.773 40.627 40.627 0 0012.662-1.773c1.695.718 2.338 1.44 2.338 1.773zm0-12.5c0 1.322-5.695 3.75-15 3.75-9.306 0-15-2.428-15-3.75 0-.333.642-1.055 2.337-1.773a40.627 40.627 0 0012.663 1.773 40.627 40.627 0 0012.662-1.773c1.695.718 2.338 1.44 2.338 1.773z" fill="#1E81CE"/><path d="M59.688 20.546c-1.527 0-2.5-.74-2.5-1.25a1.25 1.25 0 10-2.5 0c0 1.776 1.573 3.213 3.75 3.625v1.375a1.25 1.25 0 002.5 0V22.92c2.176-.41 3.75-1.847 3.75-3.625 0-2.103-2.197-3.75-5-3.75-1.527 0-2.5-.74-2.5-1.25s.973-1.25 2.5-1.25c1.526 0 2.5.74 2.5 1.25a1.25 1.25 0 002.5 0c0-1.777-1.574-3.214-3.75-3.625V9.296a1.25 1.25 0 00-2.5 0v1.375c-2.177.408-3.75 1.846-3.75 3.625 0 2.102 2.196 3.75 5 3.75 1.526 0 2.5.74 2.5 1.25s-.974 1.25-2.5 1.25zm7.5-2.5h1.25a1.25 1.25 0 100-2.5h-1.25a1.25 1.25 0 000 2.5zm-13.75-1.25a1.25 1.25 0 00-1.25-1.25h-1.25a1.25 1.25 0 000 2.5h1.25a1.25 1.25 0 001.25-1.25zm-13.75 42.5v-6.25c0-1.925-1.876-3.525-5.438-4.663a13.735 13.735 0 00-10.813-20.275v-5.062h1.25a11.267 11.267 0 0011.25-11.25v-2.5a1.25 1.25 0 00-1.25-1.25h-2.5a11.25 11.25 0 00-8.912 4.412 11.27 11.27 0 00-11.087-9.412h-2.5a1.25 1.25 0 00-1.25 1.25v2.5a11.267 11.267 0 0011.25 11.25h1.25v10.062a13.734 13.734 0 00-10.813 20.275c-3.563 1.138-5.438 2.738-5.438 4.663v6.25a3.9 3.9 0 002.05 3.137 3.813 3.813 0 00-2.05 3.113v6.25c0 4.3 9.075 6.25 17.5 6.25s17.5-1.95 17.5-6.25v-6.25a3.814 3.814 0 00-2.05-3.113 3.899 3.899 0 002.05-3.137zm-16.25-40a8.76 8.76 0 018.75-8.75h1.25v1.25a8.76 8.76 0 01-8.75 8.75h-1.25v-1.25zm-3.75-3.75a8.76 8.76 0 01-8.75-8.75v-1.25h1.25a8.76 8.76 0 018.75 8.75v1.25h-1.25zm2.5 15a11.25 11.25 0 11-11.25 11.25 11.267 11.267 0 0111.25-11.25zm15 41.25c0 1.325-5.7 3.75-15 3.75s-15-2.425-15-3.75V68.97c3.275 1.925 9.287 2.825 15 2.825 5.712 0 11.725-.9 15-2.825v2.825zm-15-2.5c-9.3 0-15-2.425-15-3.75 0-.338.637-1.05 2.337-1.775a40.553 40.553 0 0012.662 1.775A40.553 40.553 0 0034.85 63.77c1.7.725 2.337 1.437 2.337 1.775 0 1.325-5.7 3.75-15 3.75zm15-10c0 1.325-5.7 3.75-15 3.75s-15-2.425-15-3.75V56.47c3.275 1.925 9.287 2.825 15 2.825 5.712 0 11.725-.9 15-2.825v2.825zm-15-2.5c-9.3 0-15-2.425-15-3.75 0-.513 1.237-1.588 4.412-2.488a13.73 13.73 0 0021.175 0c3.175.9 4.413 1.975 4.413 2.488 0 1.325-5.7 3.75-15 3.75z" fill="#1E81CE"/><path d="M22.188 45.546c-1.527 0-2.5-.74-2.5-1.25a1.25 1.25 0 10-2.5 0c0 1.776 1.573 3.213 3.75 3.625v1.375a1.25 1.25 0 002.5 0V47.92c2.176-.41 3.75-1.847 3.75-3.625 0-2.103-2.197-3.75-5-3.75-1.527 0-2.5-.74-2.5-1.25s.973-1.25 2.5-1.25c1.526 0 2.5.74 2.5 1.25a1.25 1.25 0 002.5 0c0-1.777-1.574-3.214-3.75-3.625v-1.375a1.25 1.25 0 10-2.5 0v1.375c-2.177.408-3.75 1.846-3.75 3.625 0 2.102 2.196 3.75 5 3.75 1.526 0 2.5.74 2.5 1.25s-.974 1.25-2.5 1.25zm7.5-2.5h1.25a1.25 1.25 0 100-2.5h-1.25a1.25 1.25 0 100 2.5zm-13.75-1.25a1.25 1.25 0 00-1.25-1.25h-1.25a1.25 1.25 0 100 2.5h1.25a1.25 1.25 0 001.25-1.25z" fill="#1E81CE"/></svg>