<svg width="76" height="66" fill="none" xmlns="http://www.w3.org/2000/svg"><path d="M9.188 11.546h-5a2.507 2.507 0 00-2.5 2.5v7.5h7.5v-10zm62.5-10h-60a2.5 2.5 0 00-2.5 2.5v7.5h65v-7.5a2.5 2.5 0 00-2.5-2.5zm-42.5 37.5h5v10h-5v-10zm10-2.5h5v12.5h-5v-12.5zm10-5h5v17.5h-5v-17.5zm10-5h5v22.5h-5v-22.5z" fill="#9BC9FF"/><path d="M25.438 29.046c0-2.103-2.197-3.75-5-3.75-1.527 0-2.5-.74-2.5-1.25s.973-1.25 2.5-1.25c1.526 0 2.5.74 2.5 1.25a1.25 1.25 0 002.5 0c0-1.777-1.574-3.214-3.75-3.625v-1.375a1.25 1.25 0 10-2.5 0v1.375c-2.177.408-3.75 1.846-3.75 3.625 0 2.102 2.196 3.75 5 3.75 1.526 0 2.5.74 2.5 1.25s-.974 1.25-2.5 1.25c-1.527 0-2.5-.74-2.5-1.25a1.25 1.25 0 10-2.5 0c0 1.776 1.573 3.213 3.75 3.625v1.375a1.25 1.25 0 002.5 0V32.67c2.176-.412 3.75-1.85 3.75-3.625z" fill="#1E81CE"/><path d="M71.688.296h-60a3.761 3.761 0 00-3.75 3.75v6.25h-3.75a3.761 3.761 0 00-3.75 3.75v47.5a3.761 3.761 0 003.75 3.75h60a3.761 3.761 0 003.75-3.75v-3.75h3.75a3.761 3.761 0 003.75-3.75v-50a3.761 3.761 0 00-3.75-3.75zm-68.75 13.75a1.25 1.25 0 011.25-1.25h3.75v7.5h-5v-6.25zm62.5 47.5a1.25 1.25 0 01-1.25 1.25h-60a1.25 1.25 0 01-1.25-1.25v-38.75h5v31.25a3.761 3.761 0 003.75 3.75h53.75v3.75zm7.5-7.5a1.25 1.25 0 01-1.25 1.25h-60a1.25 1.25 0 01-1.25-1.25v-41.25h62.5v41.25zm0-43.75h-62.5v-6.25a1.25 1.25 0 011.25-1.25h60a1.25 1.25 0 011.25 1.25v6.25z" fill="#1E81CE"/><path d="M66.688 47.796h-1.25v-21.25a1.25 1.25 0 00-1.25-1.25h-5a1.25 1.25 0 00-1.25 1.25v21.25h-2.5v-16.25a1.25 1.25 0 00-1.25-1.25h-5a1.25 1.25 0 00-1.25 1.25v16.25h-2.5v-11.25a1.25 1.25 0 00-1.25-1.25h-5a1.25 1.25 0 00-1.25 1.25v11.25h-2.5v-8.75a1.25 1.25 0 00-1.25-1.25h-5a1.25 1.25 0 00-1.25 1.25v8.75h-1.25a1.25 1.25 0 100 2.5h40a1.25 1.25 0 100-2.5zm-33.75 0h-2.5v-7.5h2.5v7.5zm10 0h-2.5v-10h2.5v10zm10 0h-2.5v-15h2.5v15zm10 0h-2.5v-20h2.5v20zm-48.75-40h1.25a1.25 1.25 0 100-2.5h-1.25a1.25 1.25 0 000 2.5zm6.25 0h1.25a1.25 1.25 0 100-2.5h-1.25a1.25 1.25 0 000 2.5zm6.25 0h1.25a1.25 1.25 0 100-2.5h-1.25a1.25 1.25 0 000 2.5z" fill="#1E81CE"/><path d="M31.687 35.296c.332 0 .65-.132.884-.367l5.366-5.366 2.867 2.866a1.25 1.25 0 001.767 0l6.616-6.616 1.617 1.616a1.25 1.25 0 001.767 0l7.866-7.866v1.983a1.25 1.25 0 002.5 0v-5a1.25 1.25 0 00-1.25-1.25h-5a1.25 1.25 0 100 2.5h1.983l-6.983 6.982-1.616-1.616a1.25 1.25 0 00-1.767 0l-6.617 6.616-2.866-2.866a1.25 1.25 0 00-1.767 0l-6.25 6.25a1.25 1.25 0 00.883 2.134z" fill="#1E81CE"/></svg>