<svg width="81" height="81" fill="none" xmlns="http://www.w3.org/2000/svg"><path d="M29.688 10.546h-6.25v6.25h31.25l10 10v43.75h6.25v-60h-41.25z" fill="#9BC9FF"/><path d="M29.688 10.546h41.25v53.75h6.25v-60h-47.5v6.25z" fill="#9BC9FF"/><path d="M54.688 25.546a1.25 1.25 0 001.25 1.25h8.75l-10-10v8.75zm-50 36.25v5H8.8a8.79 8.79 0 00.688 1.662v.013l-2.913 2.9 3.538 3.537 2.912-2.912c.53.285 1.086.516 1.662.687v4.113h5v-4.113a8.792 8.792 0 001.663-.687l2.912 2.912 3.538-3.537-2.913-2.9v-.013a8.77 8.77 0 00.688-1.662h4.113v-5h-4.113a8.787 8.787 0 00-.688-1.663l2.913-2.912-3.538-3.538-2.9 2.913h-.012a8.785 8.785 0 00-1.663-.688v-4.112h-5v4.112a8.785 8.785 0 00-1.662.688h-.013l-2.9-2.913-3.537 3.538 2.913 2.912a8.785 8.785 0 00-.688 1.663H4.687zm12.5-1.25a3.75 3.75 0 110 7.5 3.75 3.75 0 010-7.5zm32.5-1.25h10v10h-10v-10z" fill="#9BC9FF"/><path d="M40.938 33.046c-1.527 0-2.5-.74-2.5-1.25a1.25 1.25 0 10-2.5 0c0 1.776 1.573 3.213 3.75 3.625v1.375a1.25 1.25 0 002.5 0V35.42c2.176-.41 3.75-1.847 3.75-3.625 0-2.103-2.197-3.75-5-3.75-1.527 0-2.5-.74-2.5-1.25s.973-1.25 2.5-1.25c1.526 0 2.5.74 2.5 1.25a1.25 1.25 0 002.5 0c0-1.777-1.574-3.214-3.75-3.625v-1.375a1.25 1.25 0 10-2.5 0v1.375c-2.177.408-3.75 1.846-3.75 3.625 0 2.102 2.196 3.75 5 3.75 1.526 0 2.5.74 2.5 1.25s-.974 1.25-2.5 1.25zm-23.75 26.25a5 5 0 100 10 5 5 0 000-10zm0 7.5a2.5 2.5 0 110-5 2.5 2.5 0 010 5z" fill="#1E81CE"/><path d="M29.05 71.37a1.25 1.25 0 00-.367-.884l-2.29-2.28.067-.16h3.227a1.25 1.25 0 001.25-1.25v-5a1.25 1.25 0 00-1.25-1.25H26.46c-.021-.053-.041-.104-.064-.154l2.288-2.288a1.25 1.25 0 000-1.767l-3.538-3.538a1.25 1.25 0 00-1.768.002L21.1 55.089l-.163-.066v-3.227a1.25 1.25 0 00-1.25-1.25h-5a1.25 1.25 0 00-1.25 1.25v3.227l-.16.066-2.278-2.293a1.25 1.25 0 00-1.769-.002l-3.543 3.543a1.25 1.25 0 000 1.767l2.288 2.288c-.022.05-.042.101-.064.154H4.688a1.25 1.25 0 00-1.25 1.25v5a1.25 1.25 0 001.25 1.25h3.227l.066.16-2.293 2.28a1.248 1.248 0 000 1.768l3.537 3.538a1.25 1.25 0 001.768 0l2.287-2.288.154.064v3.228a1.25 1.25 0 001.25 1.25h5a1.25 1.25 0 001.25-1.25v-3.228l.153-.064 2.288 2.288a1.25 1.25 0 001.767 0l3.538-3.538a1.25 1.25 0 00.37-.885zm-4.788 1.77l-2.028-2.028a1.25 1.25 0 00-1.484-.213 7.578 7.578 0 01-1.426.588 1.25 1.25 0 00-.887 1.196v2.863h-2.5v-2.863a1.25 1.25 0 00-.886-1.196 7.566 7.566 0 01-1.426-.588 1.25 1.25 0 00-1.484.213l-2.028 2.029-1.768-1.768 2.025-2.017a1.28 1.28 0 00.368-.898c0-.209-.053-.415-.153-.599a7.49 7.49 0 01-.589-1.427 1.25 1.25 0 00-1.196-.886H5.937v-2.5H8.8a1.25 1.25 0 001.196-.887c.147-.494.344-.973.589-1.427a1.25 1.25 0 00-.214-1.483l-2.029-2.028 1.768-1.77 2.016 2.026a1.295 1.295 0 001.5.215c.454-.244.932-.44 1.427-.588a1.25 1.25 0 00.884-1.196v-2.862h2.5v2.862a1.25 1.25 0 00.887 1.196c.494.147.972.344 1.426.588a1.295 1.295 0 001.5-.215l2.016-2.025 1.768 1.769-2.029 2.028a1.25 1.25 0 00-.214 1.483c.245.454.442.933.589 1.427a1.25 1.25 0 001.195.887h2.863v2.5h-2.863a1.25 1.25 0 00-1.196.886 7.486 7.486 0 01-.589 1.427 1.3 1.3 0 00-.152.612 1.249 1.249 0 00.367.885l2.025 2.017-1.768 1.768z" fill="#1E81CE"/><path d="M77.188 3.046h-47.5a1.25 1.25 0 00-1.25 1.25v5h-5a1.25 1.25 0 00-1.25 1.25v5h-5a1.25 1.25 0 00-1.25 1.25v30a1.25 1.25 0 002.5 0v-28.75h35v7.5a2.507 2.507 0 002.5 2.5h7.5v47.5h-33.75a1.25 1.25 0 000 2.5h35a1.25 1.25 0 001.25-1.25v-5h5a1.25 1.25 0 001.25-1.25v-5h5a1.25 1.25 0 001.25-1.25v-60a1.25 1.25 0 00-1.25-1.25zm-21.25 22.5v-5.738l5.737 5.738h-5.737zm13.75 43.75h-3.75v-42.5a1.291 1.291 0 00-.363-.888l-10-10a1.29 1.29 0 00-.888-.362h-30v-3.75h45v57.5zm6.25-6.25h-3.75v-52.5a1.25 1.25 0 00-1.25-1.25h-40v-3.75h45v57.5z" fill="#1E81CE"/><path d="M59.688 58.046h-10a1.25 1.25 0 00-1.25 1.25v10a1.25 1.25 0 001.25 1.25h10a1.25 1.25 0 001.25-1.25v-10a1.25 1.25 0 00-1.25-1.25zm-1.25 10h-7.5v-7.5h7.5v7.5zm-35-26.25a1.25 1.25 0 001.25 1.25h35a1.25 1.25 0 100-2.5h-35a1.25 1.25 0 00-1.25 1.25zm1.25 6.25h35a1.25 1.25 0 100-2.5h-35a1.25 1.25 0 100 2.5zm35 2.5h-28.75a1.25 1.25 0 100 2.5h28.75a1.25 1.25 0 100-2.5zm-15 7.5h-10a1.25 1.25 0 100 2.5h10a1.25 1.25 0 100-2.5zm0 5h-10a1.25 1.25 0 100 2.5h10a1.25 1.25 0 100-2.5zm0 5h-10a1.25 1.25 0 100 2.5h10a1.25 1.25 0 100-2.5z" fill="#1E81CE"/></svg>