<svg width="81" height="81" fill="none" xmlns="http://www.w3.org/2000/svg"><path d="M4.688 54.296a7.5 7.5 0 0015 0v-15h-15v15z" fill="#9BC9FF"/><path d="M75.875 45.17l-4.938-4.924V4.296a1.236 1.236 0 00-1.25-1.25l-50 .037a1.25 1.25 0 00-1.25 1.25v33.713H4.688a1.25 1.25 0 00-1.25 1.25v15a8.76 8.76 0 008.75 8.75h42.338a13.597 13.597 0 002.163 9.612l.5.763v3.375a1.25 1.25 0 002.5 0v-3.75c0-.246-.074-.486-.213-.688l-.712-1.087a11.133 11.133 0 01-1.688-8.225h6.6a9.124 9.124 0 001.95 5.05l.588.725a1.251 1.251 0 00.975.475c.282.002.557-.095.775-.275a1.226 1.226 0 00.2-1.75l-.588-.738a6.642 6.642 0 01.5-8.85 1.26 1.26 0 000-1.775l-6.225-6.225a1.346 1.346 0 01-.175-1.812 1.2 1.2 0 01.938-.425 1.216 1.216 0 01.887.362l7.825 7.825a1.255 1.255 0 101.775-1.775l-2.162-2.15v-7.937l3.162 3.175a6.18 6.18 0 011.838 4.425v25.425a1.25 1.25 0 002.5 0V51.37a8.749 8.749 0 00-2.563-6.2zM12.187 60.547a6.25 6.25 0 01-6.25-6.25v-13.75h12.5v13.75a6.25 6.25 0 01-6.25 6.25zm56.25-11.338l-3.162-3.175a3.759 3.759 0 10-5.2 5.425l5.4 5.4a9.058 9.058 0 00-1.637 3.688H18.3a8.712 8.712 0 002.637-6.25V5.583l47.5-.037v43.662z" fill="#1E81CE"/><path d="M44.688 23.046c-1.527 0-2.5-.74-2.5-1.25a1.25 1.25 0 10-2.5 0c0 1.776 1.573 3.213 3.75 3.625v1.375a1.25 1.25 0 002.5 0V25.42c2.176-.41 3.75-1.847 3.75-3.625 0-2.103-2.197-3.75-5-3.75-1.527 0-2.5-.74-2.5-1.25s.973-1.25 2.5-1.25c1.526 0 2.5.74 2.5 1.25a1.25 1.25 0 002.5 0c0-1.777-1.574-3.214-3.75-3.625v-1.375a1.25 1.25 0 10-2.5 0v1.375c-2.177.408-3.75 1.846-3.75 3.625 0 2.102 2.196 3.75 5 3.75 1.526 0 2.5.74 2.5 1.25s-.974 1.25-2.5 1.25zm17.5 7.5h-27.5a1.25 1.25 0 100 2.5h27.5a1.25 1.25 0 100-2.5zm0 5h-27.5a1.25 1.25 0 100 2.5h27.5a1.25 1.25 0 100-2.5zm-32.5-5h-2.5a1.25 1.25 0 100 2.5h2.5a1.25 1.25 0 100-2.5zm0 5h-2.5a1.25 1.25 0 100 2.5h2.5a1.25 1.25 0 100-2.5zm32.5 5h-27.5a1.25 1.25 0 100 2.5h27.5a1.25 1.25 0 100-2.5zm-7.5 5h-20a1.25 1.25 0 100 2.5h20a1.25 1.25 0 100-2.5zm0 5h-20a1.25 1.25 0 100 2.5h20a1.25 1.25 0 100-2.5zm-25-10h-2.5a1.25 1.25 0 100 2.5h2.5a1.25 1.25 0 100-2.5zm0 5h-2.5a1.25 1.25 0 100 2.5h2.5a1.25 1.25 0 100-2.5zm0 5h-2.5a1.25 1.25 0 100 2.5h2.5a1.25 1.25 0 100-2.5z" fill="#1E81CE"/></svg>