<svg width="56" height="69" fill="none" xmlns="http://www.w3.org/2000/svg"><mask id="path-1-inside-1" fill="#fff"><path fill-rule="evenodd" clip-rule="evenodd" d="M38.844 15.64c0 6.728-5.065 11.843-10.907 11.843S17.031 22.368 17.031 15.64 22.095 3.797 27.937 3.797c5.842 0 10.907 5.115 10.907 11.843zm-5.907 13.855a13.102 13.102 0 01-5 .988c-1.762 0-3.448-.35-5-.988v1.838l5 3 5-3v-1.838zm2.27-1.2c3.982-2.61 6.637-7.302 6.637-12.656 0-8.198-6.226-14.843-13.907-14.843-7.68 0-13.906 6.645-13.906 14.843 0 5.354 2.655 10.046 6.636 12.657h-.23v2.775l-4.05 1.012-5.537 1.388A13.724 13.724 0 00.437 46.808v20.238a1.25 1.25 0 001.25 1.25h52.5a1.25 1.25 0 001.25-1.25V46.808a13.724 13.724 0 00-10.412-13.337l-5.538-1.388-4.05-1.012v-2.775h-.23zM33.9 38.972l3.262-4.888-2.775-.7-4.262 2.563L33.9 38.97zm-5.963 1.762l1.525-.512-.137-1.713-1.388-1.112-1.387 1.112-.138 1.713 1.525.512zm-2.187-4.787l-4.263-2.563-2.775.7 3.263 4.888 3.775-3.025zm-12.813 16.1v13.75h7.213l-6.313-30.5-2.375.6a11.22 11.22 0 00-8.525 10.912v18.988h7.5v-13.75a1.25 1.25 0 112.5 0zm3.4-17.025l5.713 27.6 1.812-21.963-1.4 1.113a1.222 1.222 0 01-.775.275 1.201 1.201 0 01-1.038-.563l-4.312-6.462zm9.863 7.762l-1.9 23.013h7.275l-1.9-23.013-1.338.45c-.26.084-.54.084-.8 0l-1.337-.45zm7.212-1.012l-1.4-1.113 1.813 21.963 5.712-27.6-4.312 6.462a1.201 1.201 0 01-1.038.563 1.23 1.23 0 01-.775-.275zm12.025 24.025h7.5V46.808a11.22 11.22 0 00-8.525-10.912l-2.375-.6-6.312 30.5h7.212v-13.75a1.25 1.25 0 112.5 0v13.75z"/></mask><path fill-rule="evenodd" clip-rule="evenodd" d="M38.844 15.64c0 6.728-5.065 11.843-10.907 11.843S17.031 22.368 17.031 15.64 22.095 3.797 27.937 3.797c5.842 0 10.907 5.115 10.907 11.843zm-5.907 13.855a13.102 13.102 0 01-5 .988c-1.762 0-3.448-.35-5-.988v1.838l5 3 5-3v-1.838zm2.27-1.2c3.982-2.61 6.637-7.302 6.637-12.656 0-8.198-6.226-14.843-13.907-14.843-7.68 0-13.906 6.645-13.906 14.843 0 5.354 2.655 10.046 6.636 12.657h-.23v2.775l-4.05 1.012-5.537 1.388A13.724 13.724 0 00.437 46.808v20.238a1.25 1.25 0 001.25 1.25h52.5a1.25 1.25 0 001.25-1.25V46.808a13.724 13.724 0 00-10.412-13.337l-5.538-1.388-4.05-1.012v-2.775h-.23zM33.9 38.972l3.262-4.888-2.775-.7-4.262 2.563L33.9 38.97zm-5.963 1.762l1.525-.512-.137-1.713-1.388-1.112-1.387 1.112-.138 1.713 1.525.512zm-2.187-4.787l-4.263-2.563-2.775.7 3.263 4.888 3.775-3.025zm-12.813 16.1v13.75h7.213l-6.313-30.5-2.375.6a11.22 11.22 0 00-8.525 10.912v18.988h7.5v-13.75a1.25 1.25 0 112.5 0zm3.4-17.025l5.713 27.6 1.812-21.963-1.4 1.113a1.222 1.222 0 01-.775.275 1.201 1.201 0 01-1.038-.563l-4.312-6.462zm9.863 7.762l-1.9 23.013h7.275l-1.9-23.013-1.338.45c-.26.084-.54.084-.8 0l-1.337-.45zm7.212-1.012l-1.4-1.113 1.813 21.963 5.712-27.6-4.312 6.462a1.201 1.201 0 01-1.038.563 1.23 1.23 0 01-.775-.275zm12.025 24.025h7.5V46.808a11.22 11.22 0 00-8.525-10.912l-2.375-.6-6.312 30.5h7.212v-13.75a1.25 1.25 0 112.5 0v13.75z" fill="#9BC9FF"/><path d="M32.937 29.495h2v-2.986l-2.76 1.136.76 1.85zm-10 0l.761-1.85-2.76-1.136v2.986h2zm0 1.838h-2v1.133l.971.582 1.03-1.715zm5 3l-1.029 1.715 1.03.617 1.028-.617-1.029-1.715zm5-3l1.03 1.715.97-.583v-1.132h-2zm2.27-3.037l-1.096-1.673-5.6 3.673h6.696v-2zm-14.54 0v2h6.696l-5.599-3.673-1.097 1.673zm-.23 0v-2h-2v2h2zm0 2.775l.485 1.94 1.515-.379v-1.561h-2zm-4.05 1.012l-.485-1.94.485 1.94zm-5.537 1.388l.482 1.94h.004l-.486-1.94zm-7.506 4.873l1.576 1.23-1.576-1.23zM.437 46.808h2v-.003l-2 .003zM.804 67.93l1.414-1.415L.804 67.93zm54.633-21.122l-2-.003v.003h2zm-2.906-8.464l-1.576 1.23 1.576-1.23zm-7.506-4.873l-.486 1.94h.003l.483-1.94zm-5.538-1.388l.486-1.94-.486 1.94zm-4.05-1.012h-2v1.561l1.515.379.485-1.94zm0-2.775h2v-2h-2v2zm1.725 5.787l1.664 1.11 1.573-2.356-2.747-.693-.49 1.94zM33.9 38.971l-1.25 1.56 1.702 1.365 1.211-1.815-1.663-1.11zm.487-5.588l.49-1.94-.807-.203-.713.43 1.03 1.713zm-4.262 2.563l-1.03-1.714-2.461 1.479 2.24 1.795 1.25-1.56zm-.663 4.275l.637 1.896 1.482-.498-.125-1.558-1.994.16zm-1.525.512L27.3 42.63l.637.214.637-.214-.637-1.896zm1.388-2.225l1.994-.16-.07-.86-.673-.54-1.251 1.56zm-1.388-1.112l1.252-1.56-1.252-1.004-1.25 1.003 1.25 1.56zm-1.387 1.112l-1.251-1.56-.674.54-.069.86 1.994.16zm-.138 1.713l-1.993-.16-.125 1.558 1.481.498.637-1.896zm-4.925-6.838l1.03-1.714-.712-.429-.807.204.49 1.94zm4.263 2.563l1.25 1.56 2.241-1.795-2.46-1.48-1.031 1.715zm-7.038-1.863l-.489-1.94-2.747.694 1.573 2.356 1.663-1.11zm3.263 4.888l-1.664 1.11 1.212 1.815 1.703-1.365-1.251-1.56zm-9.038 26.825h-2v2h2v-2zm7.213 0v2h2.456l-.498-2.406-1.958.406zm-6.313-30.5l1.959-.406-.423-2.045-2.025.512.49 1.939zm-2.375.6l.48 1.941.01-.002-.49-1.94zM5.316 39.88L3.74 38.649l1.576 1.23zm-2.379 6.928h2v-.004l-2 .004zm0 18.988h-2v2h2v-2zm7.5 0v2h2v-2h-2zm.367-14.634l1.414 1.414-1.415-1.414zm1.767 0l1.415-1.414-1.415 1.414zM22.05 62.62l-1.959.405 3.952-.24-1.993-.165zm-5.713-27.6l1.664-1.11-3.622 1.515 1.958-.405zm7.525 5.637l1.994.165.38-4.605-3.618 2.874 1.244 1.566zm-1.4 1.113l-1.244-1.566-.01.008-.01.008 1.264 1.55zm-.775.275l.005-2h-.07l.065 2zm-.187-.013l.33-1.972-.026-.005-.026-.003-.278 1.98zm-.85-.55l1.693-1.065-.015-.023-.014-.022-1.664 1.11zm3.65 24.313l-1.993-.165-.179 2.165H24.3v-2zm1.9-23.013l.638-1.895-2.421-.815-.21 2.546 1.993.164zm5.375 23.013v2h2.172l-.179-2.165-1.993.165zm-1.9-23.013l1.993-.164-.21-2.546-2.42.815.637 1.895zm-1.338.45l.61 1.905.014-.005.014-.004-.638-1.896zm-.8 0L26.9 45.13l.013.004.014.005.61-1.905zm4.475-2.575l1.245-1.566-3.618-2.874.38 4.605 1.993-.165zm1.4 1.113l1.265-1.55-.01-.008-.01-.008-1.245 1.566zm.413 20.85l-1.993.164 3.951.241-1.958-.405zm5.712-27.6l1.959.405-3.622-1.516 1.663 1.11zm-4.312 6.462l-1.664-1.11-.015.022-.014.023 1.693 1.065zm-.364.37l1.086 1.678-1.086-1.679zm-.486.18l-.278-1.98-.026.003-.027.005.33 1.972zm-.188.013l.066-2h-.07l.004 2zm18.75 23.75v2h2v-2h-2zm-7.5 0h-2v2h2v-2zm7.5-18.988l-2-.004v.004h2zM50.56 39.88l1.576-1.231-1.576 1.23zm-6.147-3.984l-.49 1.939.01.002.48-1.941zm-2.375-.6l.49-1.94-2.025-.511-.423 2.045 1.958.406zm-6.312 30.5l-1.959-.406-.497 2.406h2.456v-2zm7.212 0v2h2v-2h-2zm-15-36.313c7.058 0 12.907-6.125 12.907-13.844h-4c0 5.74-4.28 9.844-8.907 9.844v4zM15.031 15.64c0 7.719 5.848 13.844 12.906 13.844v-4c-4.626 0-8.906-4.105-8.906-9.844h-4zM27.937 1.796c-7.058 0-12.906 6.125-12.906 13.843h4c0-5.738 4.28-9.843 8.906-9.843v-4zm12.907 13.843c0-7.718-5.849-13.843-12.907-13.843v4c4.626 0 8.907 4.105 8.907 9.843h4zM27.937 32.483a15.1 15.1 0 005.761-1.139l-1.522-3.699a11.101 11.101 0 01-4.239.838v4zm-5.76-1.139a15.103 15.103 0 005.76 1.14v-4c-1.495 0-2.922-.297-4.239-.839l-1.522 3.7zm2.76-.01v-1.84h-4v1.84h4zm4.03 1.284l-5-3-2.059 3.43 5 3 2.058-3.43zm2.941-3l-5 3 2.058 3.43 5-3-2.058-3.43zm-.97-.123v1.838h4v-1.838h-4zm5.366.473c4.554-2.986 7.54-8.311 7.54-14.329h-4c0 4.69-2.325 8.748-5.733 10.984l2.193 3.345zm7.54-14.329c0-9.177-7-16.843-15.907-16.843v4c6.455 0 11.907 5.625 11.907 12.843h4zM27.937-1.204c-8.905 0-15.906 7.666-15.906 16.843h4c0-7.218 5.452-12.843 11.906-12.843v-4zM12.031 15.639c0 6.018 2.986 11.343 7.54 14.329l2.193-3.345c-3.409-2.236-5.733-6.294-5.733-10.984h-4zm8.636 10.657h-.23v4h.23v-4zm-2.23 2v2.775h4v-2.775h-4zm1.515.834l-4.05 1.013.97 3.88 4.05-1.012-.97-3.88zm-4.05 1.013l-5.538 1.388.972 3.88 5.537-1.388-.972-3.88zm-5.535 1.387a15.724 15.724 0 00-8.6 5.583l3.153 2.462a11.723 11.723 0 016.412-4.163l-.965-3.882zm-8.6 5.583a15.724 15.724 0 00-3.33 9.698l4-.006a11.72 11.72 0 012.483-7.23l-3.153-2.462zm-3.33 9.695v20.238h4V46.808h-4zm0 20.238c0 .862.343 1.688.952 2.298l2.829-2.829c.14.141.22.332.22.53h-4zm.952 2.298a3.25 3.25 0 002.298.952v-4a.75.75 0 01.53.22L-.61 69.343zm2.298.952h52.5v-4h-52.5v4zm52.5 0a3.25 3.25 0 002.299-.952l-2.829-2.829a.75.75 0 01.53-.22v4zm2.299-.952a3.25 3.25 0 00.951-2.298h-4a.75.75 0 01.22-.53l2.829 2.828zm.951-2.298V46.808h-4v20.238h4zm0-20.235a15.724 15.724 0 00-3.33-9.698l-3.152 2.462a11.724 11.724 0 012.482 7.23l4 .006zm-3.33-9.698a15.724 15.724 0 00-8.6-5.583l-.965 3.882c2.543.632 4.8 2.097 6.413 4.163l3.153-2.462zm-8.596-5.582l-5.538-1.388-.972 3.88 5.538 1.388.972-3.88zm-5.539-1.388l-4.05-1.013-.97 3.88 4.05 1.013.97-3.88zm-2.535.928v-2.775h-4v2.775h4zm-2-4.775h-.23v4h.23v-4zm.062 6.677l-3.263 4.887 3.327 2.221 3.263-4.888-3.327-2.22zm-1.6 2.35l2.774.7.979-3.88-2.775-.7-.979 3.88zm-2.744 2.337l4.263-2.563-2.061-3.428-4.263 2.563 2.061 3.428zm3.995-.25l-3.774-3.025-2.502 3.121 3.775 3.025 2.502-3.121zm-6.325.915l-1.525.512 1.274 3.792 1.525-.512-1.274-3.792zm-1.494.343l.138 1.713 3.987-.32-.137-1.713-3.988.32zm-.645.288l1.388 1.112 2.502-3.12-1.387-1.113-2.503 3.121zm1.115 1.112l1.388-1.112-2.503-3.12-1.387 1.112 2.502 3.12zm.605.313l.138-1.713-3.988-.32-.137 1.713 3.987.32zm.169-1.544l-1.526-.512-1.274 3.791 1.525.513 1.274-3.792zm-8.118-3.74l4.262 2.563 2.061-3.428-4.262-2.563-2.061 3.428zm-1.255.925l2.775-.7-.979-3.878-2.775.7.979 3.878zm4.436 1.838l-3.262-4.887-3.327 2.22 3.262 4.888 3.327-2.22zm.861-3.475l-3.775 3.025 2.502 3.121L27 37.506l-2.5-3.121zm-9.562 31.41v-13.75h-4v13.75h4zm5.213-2h-7.213v4h7.213v-4zm-8.271-28.094l6.312 30.5 3.917-.81-6.312-30.5-3.917.81zm.073 2.134l2.375-.6-.98-3.878-2.374.6.98 3.878zm-5.06 3.276a9.22 9.22 0 015.05-3.274l-.96-3.883A13.22 13.22 0 003.74 38.65l3.152 2.462zm-1.955 5.693a9.22 9.22 0 011.955-5.693L3.74 38.65a13.22 13.22 0 00-2.803 8.163l4-.008zm0 18.992V46.808h-4v18.988h4zm5.5-2h-7.5v4h7.5v-4zm-2-11.75v13.75h4v-13.75h-4zm.952-2.298a3.25 3.25 0 00-.952 2.298h4a.75.75 0 01-.22.53L9.39 49.748zm2.298-.952a3.25 3.25 0 00-2.298.952l2.829 2.828a.75.75 0 01-.53.22v-4zm2.299.952a3.25 3.25 0 00-2.299-.952v4a.75.75 0 01-.53-.22l2.829-2.828zm.951 2.298a3.25 3.25 0 00-.951-2.298l-2.829 2.828a.75.75 0 01-.22-.53h4zm9.071 10.17l-5.712-27.6-3.917.81 5.712 27.6 3.917-.81zM21.87 40.493l-1.812 21.962 3.986.33 1.813-21.963-3.987-.33zm1.838 2.843l1.4-1.113-2.489-3.132-1.4 1.113 2.489 3.132zm-2.024.709a3.222 3.222 0 002.044-.726l-2.529-3.099a.779.779 0 01.494-.175l-.01 4zm-.514-.04c.193.032.389.045.584.039l-.131-3.998c.07-.003.14.002.208.014l-.66 3.945zm-1.241-.475c.39.253.833.418 1.294.483l.556-3.962a.8.8 0 01.323.12l-2.173 3.36zm-.971-.983c.248.395.58.73.97.983l2.174-3.358c.097.063.18.147.242.245l-3.386 2.13zm-4.283-6.417l4.312 6.462 3.328-2.22L18 33.911l-3.327 2.22zm11.62 29.83l1.9-23.013-3.987-.33-1.9 23.013 3.986.33zm5.28-2.165H24.3v4h7.275v-4zm-3.892-20.848l1.9 23.012 3.986-.329-1.9-23.012-3.986.329zm1.293 2.18l1.338-.45-1.276-3.79-1.337.45 1.275 3.79zm-2.048.01a3.31 3.31 0 002.02 0l-1.22-3.81a.688.688 0 01.42 0l-1.22 3.81zm-1.365-.46l1.338.45 1.275-3.79-1.337-.45-1.276 3.79zm5.206-2.454l1.4 1.113 2.489-3.132-1.4-1.113-2.489 3.132zm5.05 20.232l-1.812-21.962-3.987.329 1.813 21.962 3.986-.329zm1.76-27.84l-5.712 27.6 3.917.81 5.713-27.6-3.917-.81zm-.69 7.977l4.313-6.462-3.327-2.22-4.313 6.462 3.328 2.22zm-.94.938c.39-.253.722-.588.97-.983l-3.386-2.13a.798.798 0 01.242-.245l2.173 3.358zm-1.295.483c.461-.065.903-.23 1.294-.483l-2.173-3.358a.8.8 0 01.323-.12l.556 3.96zm-.531.03c.195.007.39-.006.583-.038l-.66-3.945a1.05 1.05 0 01.208-.014l-.131 3.998zm-1.974-.724c.577.471 1.3.727 2.044.726l-.01-4c.18 0 .355.061.495.175l-2.529 3.1zm20.79 20.476h-7.5v4h7.5v-4zm-2-16.988v18.988h4V46.808h-4zm-1.955-5.697a9.22 9.22 0 011.954 5.693l4 .008a13.22 13.22 0 00-2.802-8.163l-3.152 2.462zm-5.051-3.274a9.22 9.22 0 015.051 3.274l3.152-2.462a13.22 13.22 0 00-7.242-4.695l-.961 3.883zm-2.385-.602l2.376.6.98-3.878-2.376-.6-.98 3.878zM37.684 66.2l6.313-30.5-3.917-.81-6.313 30.5 3.917.81zm5.254-2.405h-7.212v4h7.212v-4zm-2-11.75v13.75h4v-13.75h-4zm.952-2.298a3.25 3.25 0 00-.952 2.298h4a.75.75 0 01-.22.53l-2.828-2.828zm2.298-.952a3.25 3.25 0 00-2.298.952l2.829 2.828a.75.75 0 01-.53.22v-4zm2.299.952a3.25 3.25 0 00-2.299-.952v4a.75.75 0 01-.53-.22l2.829-2.828zm.951 2.298a3.25 3.25 0 00-.951-2.298l-2.829 2.828a.75.75 0 01-.22-.53h4zm0 13.75v-13.75h-4v13.75h4z" fill="#1E81CE" mask="url(#path-1-inside-1)"/><path d="M19.5 5.483l-4.219 8.203S19.4 7.313 20.828 6.89c3.656-1.084 3.826 1.14 7.61.657 1.661-.213 4.266-1.001 5.906-.657 2.095.44 2.265 1.407 3.624 3.282.673.928 2.86 4.218 2.86 4.218l-2.39-5.859-3.079-4.14-5.234-2.11-6.328.781L19.5 5.483z" fill="#1E81CE" stroke="#1E81CE" stroke-width="2"/></svg>