<svg width="81" height="81" fill="none" xmlns="http://www.w3.org/2000/svg"><path d="M18.438 4.296a7.5 7.5 0 00-7.5 7.5v52.5a7.511 7.511 0 017.5-7.5h52.5v-52.5h-52.5zm8.75 45v-7.5h5v7.5h-5zm10 0v-12.5h5v12.5h-5zm10 0v-17.5h5v17.5h-5zm10 0v-25h5v25h-5zm-6.25 15v12.5l3.75-2.5 3.75 2.5v-12.5h-7.5z" fill="#9BC9FF"/><path d="M44.688 20.546c-1.527 0-2.5-.74-2.5-1.25a1.25 1.25 0 10-2.5 0c0 1.776 1.573 3.213 3.75 3.625v1.375a1.25 1.25 0 002.5 0V22.92c2.176-.41 3.75-1.847 3.75-3.625 0-2.103-2.197-3.75-5-3.75-1.527 0-2.5-.74-2.5-1.25s.973-1.25 2.5-1.25c1.526 0 2.5.74 2.5 1.25a1.25 1.25 0 002.5 0c0-1.777-1.574-3.214-3.75-3.625V9.296a1.25 1.25 0 00-2.5 0v1.375c-2.177.408-3.75 1.846-3.75 3.625 0 2.102 2.196 3.75 5 3.75 1.526 0 2.5.74 2.5 1.25s-.974 1.25-2.5 1.25z" fill="#1E81CE"/><path d="M70.938 3.046h-52.5a8.76 8.76 0 00-8.75 8.75v52.5a8.76 8.76 0 008.75 8.75h31.25v3.75a1.23 1.23 0 00.662 1.1 1.204 1.204 0 001.275-.063l3.063-2.037 3.062 2.037a1.25 1.25 0 001.938-1.037v-3.75h11.25a1.25 1.25 0 001.25-1.25v-67.5a1.25 1.25 0 00-1.25-1.25zm-13.75 71.412l-1.813-1.2a1.22 1.22 0 00-1.375 0l-1.813 1.2v-8.912h5v8.912zm12.5-3.912h-10v-5h6.25a1.25 1.25 0 100-2.5h-50a1.25 1.25 0 100 2.5h33.75v5h-31.25a6.25 6.25 0 010-12.5h51.25v12.5zm0-15h-51.25a8.605 8.605 0 00-6.175 2.562l-.075.075V11.796a6.25 6.25 0 016.25-6.25h51.25v50z" fill="#1E81CE"/><path d="M18.438 53.046a1.25 1.25 0 001.25-1.25v-42.5a1.25 1.25 0 00-2.5 0v42.5a1.25 1.25 0 001.25 1.25zm6.25-2.5h40a1.25 1.25 0 100-2.5h-1.25v-23.75a1.25 1.25 0 00-1.25-1.25h-5a1.25 1.25 0 00-1.25 1.25v23.75h-2.5v-16.25a1.25 1.25 0 00-1.25-1.25h-5a1.25 1.25 0 00-1.25 1.25v16.25h-2.5v-11.25a1.25 1.25 0 00-1.25-1.25h-5a1.25 1.25 0 00-1.25 1.25v11.25h-2.5v-6.25a1.25 1.25 0 00-1.25-1.25h-5a1.25 1.25 0 00-1.25 1.25v6.25h-1.25a1.25 1.25 0 100 2.5zm33.75-25h2.5v22.5h-2.5v-22.5zm-10 7.5h2.5v15h-2.5v-15zm-10 5h2.5v10h-2.5v-10zm-10 5h2.5v5h-2.5v-5z" fill="#1E81CE"/></svg>