<svg width="76" height="76" fill="none" xmlns="http://www.w3.org/2000/svg"><path d="M50.438 16.296c-1.527 0-2.5-.74-2.5-1.25a1.25 1.25 0 10-2.5 0c0 1.776 1.573 3.213 3.75 3.625v1.375a1.25 1.25 0 002.5 0V18.67c2.176-.41 3.75-1.847 3.75-3.625 0-2.103-2.197-3.75-5-3.75-1.527 0-2.5-.74-2.5-1.25s.973-1.25 2.5-1.25c1.526 0 2.5.74 2.5 1.25a1.25 1.25 0 002.5 0c0-1.777-1.574-3.214-3.75-3.625V5.046a1.25 1.25 0 00-2.5 0V6.42c-2.177.408-3.75 1.846-3.75 3.625 0 2.102 2.196 3.75 5 3.75 1.526 0 2.5.74 2.5 1.25s-.974 1.25-2.5 1.25z" fill="#1E81CE"/><path d="M71.688 10.046h-9a12.5 12.5 0 00-24.5 0h-34a3.761 3.761 0 00-3.75 3.75v42.5a3.761 3.761 0 003.75 3.75h25v5h-5a3.761 3.761 0 00-3.75 3.75v5a1.25 1.25 0 001.25 1.25h32.5a1.25 1.25 0 001.25-1.25v-5a3.761 3.761 0 00-3.75-3.75h-5v-5h25a3.761 3.761 0 003.75-3.75v-42.5a3.761 3.761 0 00-3.75-3.75zm-21.25-7.5a10 10 0 11-10 10 10.014 10.014 0 0110-10zm-11.925 13.75a12.5 12.5 0 0023.85 0h6.825v30h-62.5v-2.5h8.75a1.25 1.25 0 001.25-1.25v-1.25h3.75a1.25 1.25 0 001.25-1.25h.212a1.238 1.238 0 01.888.362l1.037 1.038a3.695 3.695 0 002.65 1.1h13.2a8.662 8.662 0 004.375-1.175l19.913-11.488a3.75 3.75 0 00-.9-6.875 3.72 3.72 0 00-2.85.375L50.3 29.108a3.74 3.74 0 00-3.612-2.812h-9.626l-.25-.163a13.715 13.715 0 00-15.124-.087v-1a1.25 1.25 0 00-1.25-1.25h-3.75v-1.25a1.25 1.25 0 00-1.25-1.25h-8.75v-5h31.825zm-31.825 25v-17.5h7.5v17.5h-7.5zm10-2.5v-12.5h2.5v12.5h-2.5zm22.5-5h7.5a3.73 3.73 0 002.874-1.363l11.9-6.887c.288-.165.63-.21.95-.125.322.088.596.299.763.587.103.193.159.407.163.625a1.234 1.234 0 01-.626 1.075L42.8 39.208c-.95.55-2.028.839-3.125.838h-13.2a1.236 1.236 0 01-.888-.363l-1.037-1.037a3.697 3.697 0 00-2.65-1.1h-.212v-8.75c.245 0 .485-.074.687-.213l.575-.375a11.219 11.219 0 0112.475 0l.575.375c.202.14.442.213.688.213h10a1.25 1.25 0 110 2.5h-7.5a1.25 1.25 0 100 2.5zm12.5 33.75a1.25 1.25 0 011.25 1.25v3.75h-30v-3.75a1.25 1.25 0 011.25-1.25h27.5zm-20-2.5v-5h12.5v5h-12.5zm41.25-8.75a1.25 1.25 0 01-1.25 1.25h-67.5a1.25 1.25 0 01-1.25-1.25v-3.75h70v3.75zm0-6.25h-70v-36.25a1.25 1.25 0 011.25-1.25h33.75c0 .425.024.837.062 1.25H5.437a1.25 1.25 0 00-1.25 1.25v32.5a1.25 1.25 0 001.25 1.25h65a1.25 1.25 0 001.25-1.25v-32.5a1.25 1.25 0 00-1.25-1.25h-7.562c.038-.413.063-.825.063-1.25h8.75a1.25 1.25 0 011.25 1.25v36.25z" fill="#1E81CE"/><path d="M66.688 53.796h-2.5a1.25 1.25 0 100 2.5h2.5a1.25 1.25 0 100-2.5z" fill="#1E81CE"/></svg>